<svg xmlns="http://www.w3.org/2000/svg" xmlns:xlink="http://www.w3.org/1999/xlink" viewBox="0 0 1920 1416">
  <g id="Shadow_Image" data-name="Shadow Image">
    <image id="Shadow_Image-2" data-name="Shadow Image" width="1920" height="1396" transform="translate(0 20)" xlink:href="shoe1.png"/>
  </g>
  <g id="Laces" class="shoePart" style="isolation: isolate">
    <path d="M1173,737c6.85,2.9,11.78,6.44,19,10,7.6,3.75,8.26,4.1,15,9-8.63,17.11,3.92,26.77,20,34,5.67,2.55,12.9,5.78,19,8,6.26,2.28,12.32,2.06,18,5,2.71,1.4,17.52,16.27,19,19,2,3.77-.76,3.94,3,6v-1c1.75-2.15,1-4.68,3-7,3.37-3.85,6.79-6.7,10-10,4.09.43,12.31-1.36,14.86-3.53,5.64-4.4,11.74-12.2,17.14-17.47,2.14-2.09,5.12-2.6,7-5,7.46,2.77,38.26,16.26,43,21-11.76,12.68-19,31.45-28,47-11.7,20.27-20,45.11-36.75,60.88-2.73,2.58-3.13,6.91-5.25,9.12-1.33.33-1.62,1.55-4,3a80.41,80.41,0,0,1-8,10c-1.88,2-5,3-7,5-1.75-.63-1-.19-2-1-6.3-2.35-8.37-9.9-13-14-6.89-6.1-15.71-7-29-7,.93-17.21,17.36-35.31,25-48-.75-1.07-.6-1-1-3-8.2-2.4-22.33-10.93-29-16-2.81-2.14-2.08-7-5-9-6.33,4.72-12,1-16-2-3.67-.33-3.62-2.73-7-4-2.4-1.15-7.8-4.67-10-6-6.46-3.91-12.57-3.41-14-14,3.55-3.29,11.15-9.73,38-8,2.27-3.39,3.39-4.86,1-6-30.14-2.65-52.64-24.87-64-36C1160.81,756.56,1176.08,746.72,1173,737Z" />
    <path d="M1102,776c-14.21.52-43-7.69-44-18,.67,0-.67-3,0-3,8.25-5.87,28.33-1.62,29-14-7.53-6.38.43-14.17-2.07-21.08-3.29-8.62-31.3-24.5-29.93-33.92-1.48-2.54-3.94-2.37,0-6,4.41-1.85,20,9.24,25,11,7.31,2.58,17.54-1.14,26,1,5.47,1.38,12,3.61,18,5,3.91,3.61,7.92,14.3,13,15,1-.8.27-1.35,2-2,1.32-4.83,5.6-15.6,10-18,7.45,6.76,37.81,17.51,44,24-4.06,3.37-8.4,8.32-13,11.34-2.91,1.93-4.69,5.52-7,7.66-7.07,6.41-16.08,10.56-22.46,17.22,1.59,14.11,4,33.14,5.46,45.78,2,16.7,1.24,35.64-2,49v29c1,3.14,4.21,4.79,3,8-2.69,8.35-9.19,12.94-17,14,.19,11.74-4.49,12.52-10,18-3.87.15-9.72.54-12-1-6-1.91-8-7.16-12-11,0-5.71,2.66-12.45,2-16-.71-3.8-5.78-11.94-7-16-1.06-3.51,1-25.31,1-32,0-11.51-4.48-23.83-2-34C1101.85,798.38,1102,786.5,1102,776Z" />
    <path d="M977,829c-.27-3.15.11-19.73-1-23-.64-1.87-4.53-3.53-5-5-1.49-4.63,4.34-6.72,3-13-.92-4.33-3.73-13-2-20,6.42-25.91,23.56-44.84,24-76-2.08.37-1.92.24-3,1-5.69,2.46-12.6,14.59-18,19-8.79-1.94-43.83-22.55-47-29a188.07,188.07,0,0,1,15-16c9.72-9.12,21.29-15.65,32-24,4.21-3.28,7-7.9,6-10,4.67,0,16.33-.89,21-2,4.13-2.19,16.2-14,21-10,7.6,2.26,13.83,8.16,20,12,10,6.21,20.14,11.13,30,17-.91,1.08.08.08-1,1-5.38,6.68-21,11.32-31,16,0,1-4,1-4,2,0,3,3.67,10,5,15,1.5,5.66-1.39,26.82-2,32-2.86,24.43-22.92,41.33-25,64-1.33,14.55,4.09,35,7,46,1.88,7.13-1.84,15.28-6,17-2.84,1.87-6.25.4-10,0C998.45,835.33,992.28,828.78,977,829Z" />
    <path d="M626,544c-4.27,6.91-3.77,14.73-7,24-5.6,16-11,27.9-11,51,0,12.87-4.08,32.48,8,34,4.92-6.61,11.4-11.74,14-21V556c-.81-3.35-1.92-6.67-2-12Z" />
    <path d="M898,762c-5.93.19-11.45,3.09-15,1-4.85-2.16-7.4-7.75-12-10-6-3-13.23,1-19,0l-1-3c-5.62-8.73,1-29.35,3-36,2.35-7.77,1.76-13.75,4-22,4.83-17.79,9.61-35.7,10-58h-2c-1.94,0-8.73,4.7-12,3-7.55-2.3-38.6-27.62-40-35,14.14-8,29.82-17.54,44-25,7.19-3.78,18.18-5,21-13,2.21-3.46,1-12.74,1-18,0-18.49-6.59-35.36-7-51,.67,0,4.33,4,5,4,11.57,12.25,26.81,22.43,37,36,2.24,3,8.49,15.83,11,17,5.33,0,11.67-1,17-1,0,.33,1,1.67,1,2,4.53,3,28.8,27.91,33,33-.67,0-4.33,1-5,1-10.3,6-42.92,7-47,17-4.3,7.23-.37,35.3-3,46-2,8.28-1.56,18.19-4,28-1.54,6.2-4.56,14.33-6,20-2.89,11.41-1.1,20.87-4,32C905.05,741.3,898.32,748.48,898,762Z" />
    <path d="M665,414c-11.21,22-12.88,54.27-5,80,2,6.4.86,18.79,6,22v-1c5.21-6.71,6.62-15.4,11-23,7.37-12.78,19.16-32.65,23-50h-2c-3.45,2.61-9.56,2-14,1-5.62-9.4-11.44-18.54-16-29Z" />
    <path d="M790,407a8.48,8.48,0,0,1,5,2c7.7,4.13,23.26,18.77,28,27,3,5.21,5.34,13,9,18a32.06,32.06,0,0,1,22-9c7.83,8.36,26.82,29.35,34,40-14,6.34-30.93,13.17-44,20-6.42,3.36-14.48,3.81-17,11-4.23,7-.73,17-3,26-.76,3-3.19,7-4,10-3.67,13.59-3.16,25.08-7,38-1.31,4.41-6.46,12.37-5,18,.63,2.42,3.16,4.79,4,8-3.85-.45-3.61-.48-7,1-1.49,11.09-11.54,34.65-17,43-4.12,6.31-7.68,6.44-8,18-8.42.15-9.71,3-16,7-4.32-8-8.91-14.46-16-20a35.44,35.44,0,0,0-10,2c-.06-6,1-26.9,1-27,.23-.86,3.65-8.12,4-9,4.6-11.79,4.76-21.36,10-33,6.9-15.31,18.48-28.26,19-50l-14-1c-6.27-6.13-23.63-32.3-31-33-2.89,9.56-12.42,23.61-18,32-2.41,3.62-7.57,7.62-9,12v12a63,63,0,0,1-7,16c-5.57,8.29-20.28,9.37-21,22,2,2.86.88,5.69,2,10,6.55,25.29-.41,54.21-13,67-4.65,4.72-15.65,11.42-21,16a28.72,28.72,0,0,1-3,2,4.66,4.66,0,0,1-2,1c-3.39-2.13-6.69.29-25,0-15.78-.25-30-8.13-37-20-9.52-16.08-11-37.53-11-63V604c7.4-29.82,15.32-58.55,25-86,4.06-11.53,2.53-23,7-34,1.78-4.38,5.79-5.29,7-11-5.54-5.15-5.23-13.91-5-25-8.31-.35-21.52-5.74-27-10-2-1.27-5.77-.55-1-6,2-8.1,8.14-14.14,11-21,9.33-22.43,15.85-49,33-65-1.67-14.51-2.14-29.32-10-38-16.33,3.17-30.48,11.16-44,17l-14,1c-4.69,1.56-4.69,4.55-12,5-1.86-2.41-6.8-4.35-8-7q-.5-6.5-1-13c-2.78-6-10.62-8.15-11-17,30.36-19.07,73.42-30.35,114-39l1-3c3.19-4.9.16-16.13-1-20-2.53-8.42-2.48-12.57-7-19-5.66-8.05-15.65-15.7-17-29,.67,0-4.67-12-4-12,4.52,4.72,19.61,21.18,24,26,3.21,3.52,4.3,6.11,6.11,10.89,1.43,3.77,5,6.15,7.89,9.11,1.75-.63,1-.19,2-1,9.49-3.68,5.3-10.11,8-21,2.63-10.61,9.17-32.7,18-36v1c8.62,8.75,13.33,22.42,20,33,4.52,7.17,13.25,15.91,16,24,1.93,5.68-1.29,13.37,1,18,1.56,3.16,6.08,10.94,9,13,2.33,1.64,5.81,1.14,8,3l17,32c-7,.2-12.52,2.65-18,4-5.94,1.46-14.13,0-19,1-4.53,13.16-10.4,27.34-16,40-2.26,5.09-.41,10.82-2,17-3.7,14.41-8.56,30.86-12,46h4c3.35-2.27,7.59-1.42,12-3,11.39-4.09,23.13-9.11,36-12,4.92-9.78,6.9-44.05,0-55-4.61-7.32-22.18-10.48-25-20-.55-1,1.33-3,2-3,3.56,2.61,17,7.69,21,10,9.67,5.55,27.71,18,35,26a69.67,69.67,0,0,1,10,15c1.77,4.07-.43,7.67,3,10,3,0,10-4.72,16-6,6.68,10.23,24,26,25,40-2.08,1.26-3.17,3.89-5,5-3.14,1.9-5.71,2.44-9,4-1.31.62-1.92,4-4,5-.82.4-3.27-1.35-5,0-3.36,2.62-25.28,12.47-26,14v6c-1.83,6.53-2,16.61-4,24-3,10.81-8.32,22.08-13,31-1.46,2.78-5.76,14.41-5,15,1.07.75,1,.6,3,1,8.69-9.6,47.54-15.71,49-29C791.58,461.61,790.11,420,790,407Z" />
  </g>
  <g id="Bottom" class="shoePart" style="isolation: isolate">
    <path d="M27,921c-.15,3.87,0,8.72,0,11,6.33,11.52,25.63,22.37,37,29,18.09,10.56,37.34,21.69,59,29,28.81,9.73,59.59,14.84,90,22,7.13,1.68,13.17,2.68,21,4,22,3.71,44.88,6.14,67,8,11.06.93,20.94,1,31,2,27.33,0,54.67,3,82,3,24.58,2.47,48.31,2.84,70.05,5,11.77,1.13,21.31,2,31.95,2,2.65.7,16.55,2.78,19,3,14.54,1.3,18.47,1.36,33,3,20.1,2.27,40.14,4.32,59,8,2.67,0,11.33,3,14,3,35.61,5.79,56.72,10.77,82,21,7.12,2.88,12.21,3,19,6,29.29,13.1,60.12,25.14,88,39,4.93,2.45,8.78,5.66,14,8,8,3.6,15.66,8,23,12,10,5.41,19.24,8.18,29,14,3.29,2,7.27,5,11,7,7.8,4.2,13.93,4.79,21,9,6.14,3.66,14.38,8.57,21,12a269.79,269.79,0,0,0,27,12c19.56,7.8,41.87,15.24,61,22,6,1.37,7.85,3.33,15,4,10,2.15,21.06,4,31,6,4.69,0,7.35,1,12,1a117.85,117.85,0,0,0,17,2c.9-9.31-.4-6.09,0-10v-3c-10.92-.18-10.1-.76-20-2-9.57-.32-18-1.82-28-3-5.6-1.45-12.55-2.81-19-5-12.85-4.36-26.57-9.22-39-15-5.31-1.4-6.44-3.11-12-5-5.38-2.37-11.5-5.84-17-8-12.28-4.83-23-8.56-35-14-27.44-12.44-56.23-24.63-83-38-3-.67-6-2.65-9-4-6-2.76-13.28-6.89-19-10s-9.65-4.11-16-7c-8-3.63-16-9.76-24-13-8.4-3.4-14.65-5.21-23-9-6.64-3-15.27-6.43-22-9-6.25-2.39-10.25-3.11-16-6-1.77-.89-6.8-2.15-9-3a317.89,317.89,0,0,0-38-12c-12.58-3.24-26.5-6.78-39-10a221.71,221.71,0,0,0-26-5c-6.14-.91-11.12-2.39-21-4-12.9-2.1-20.87-3.52-37-5-18.82-1.73-40-5-59-7-5.29-.56-11,.37-17-1-5.78-1.33-18.24-2.57-24.2-2-8.25-.64-14.79-1.44-21.8-2-6.17-.3-15,.12-22-1-1.06-.17-4.57-.78-6-1-2.77-.43-7.62.11-12,0a82,82,0,0,1-9-1c-3.33.33-12.37-.75-16-1-14,0-16-1-30-1-4.67,0-14.33-1-19-1-9.75-.66-19.05-.61-28-2-8.33,0-17.67-2-26-2-13.39-1.45-20.44-2.5-33-4-11-1.32-29-2.76-41-6-3.26-.88-4.47-1.14-7-2-2.27-.77-6.29-2.13-7-2l-14-3c-14.43-4.55-20.28-5.54-35-11-3.89-1.44-19.25-5.3-23-7-5-2.28-11-6.4-16-9-8.27-4.31-15.88-6.77-24-11-9.39-4.89-21.3-11-29-18C36.05,928.48,33.9,924.91,27,921Z" />
    <path d="M18,803h4c12,18.55,26.19,39.81,45,51,36.81,21.9,82.83,39.73,128,51,28.31,7.06,56.83,8.11,85,15h14c32.55,8,74.74,3.88,108,12h24c35.48,8.78,79.3,5.5,114,14h16c38.32,9.56,79,10.31,114,23,37,13.42,72.91,32.18,108,48,11.28,5.09,22.51,7.47,34,12,29.85,11.77,62.21,25.08,92,38l12,2c14.54,5.25,30.83,10.58,46,16,9.06,3.24,19.52,4.87,28,7h10c23.66,6.11,54.15,9.86,80,14,15,2.4,29.5,4.83,43,7a74.41,74.41,0,0,0,13,1c16.94,4.15,40.69,3.76,58,8h18c21.6,5.23,50.09,2.65,72,8h46a548.37,548.37,0,0,0,59-3c9.33,0,23.67-1,33-1,4-1,12-3,16-4,5.33,0,10.67-2,16-2,14.81-1.45,31.85-2.5,46-6h10c23.54-5.91,50.85-8.14,74-14,6.67-.67,13.33-2.33,20-3,30.85-9.15,62.83-15.89,90-28,6.71-3,12.55-4.79,19-8,27.19-13.53,48.48-25.45,60-55,1.35-3.47,1.86-8.64,3-12,4.09-12.12-2.6-25.56-4-35h1v-1h2c4.73,7.39,12.22,13.19,17,21,7.51,12.27,9.56,26.51,15,41a675.56,675.56,0,0,1,24,77q.49,12,1,24c0,28.71-3.16,46.07-13,64-13.13,23.93-71.71,49.21-101,59-9.9,3.31-18,3.41-28,7-31.89,11.5-70.6,16.16-106,25-14.09,3.52-29.11,2.81-42,6h-12c-16.53,4.09-37.68,4-54,8h-14c-12.67,3.11-31,2.81-44,6h-18c-13.74,3.35-32.17,4-48,4-8,0-14,1-22,1-16,1.29-44,1.09-66.91-.23-12.4-.6-26.44-.77-41.09-.77-23.18-3.38-44.8-4.53-71-8-4.4-.58-9.8.07-13-1a33.79,33.79,0,0,0-1-8c-127.81-10.65-209.91-71.36-296-124-12-7.31-24.71-11.22-38-17-29.89-13-63.11-23.16-96-34l-67-15-76-10c-11.17-2.64-23-.63-33-3l-37-2c-28.65-6.43-62.57-1.3-91-8-9.18-2.16-19-.12-27-2l-30-1-91-8-79-13c-42.91-12.14-84.52-25.18-117-48L35,977l-8-9c-5.44-3.47-14.85-9.14-19-17-3.52-6.67-7.69-32.46-5-44,3.38-14.47,2.31-34.33,6-50q.5-17,1-34C11.89,815.56,16,809,18,803Z" />
  </g>
  <g id="Side" class="shoePart" style="isolation: isolate">
    <path d="M1082,1099c.1-1.07-.23-1.45,0,0C1079.88,1098.49,1083.73,1099.65,1082,1099Z"  fill-rule="evenodd"/>
    <path d="M1073,1097c-.72.37-1.1.43,0,0Z"  fill-rule="evenodd"/>
    <path d="M1066,1095c1.06-1.49-.58,1.17,0,0Z"  fill-rule="evenodd"/>
    <path d="M911,1056c.2.26-.6-.36,0,0s-1.32,0,0,0c.43,0-.13-.32,0,0,0,.1-.12-.06,0,0s.07,0,0,0c0,.15-.31-.3,0,0s-.27-.12,0,0c.79.36.18-.38,0,0C911,1056.1,911.25,1056.23,911,1056Z"  fill-rule="evenodd"/>
    <path d="M911,1056c.33.24-.35-.28,0,0s0-.22,0,0c-1-.07.47.22,0,0C910.3,1055.68,911.24,1056.14,911,1056Z"  fill-rule="evenodd"/>
    <path d="M700,973c2.15.69-.23.37,2,1C700.06,973.6,702.23,973.63,700,973Z"  fill-rule="evenodd"/>
    <path d="M696,971c1,.8.27.35,2,1A5.48,5.48,0,0,1,696,971Z"  fill-rule="evenodd"/>
    <path d="M464,929c.19.13-.67-.31,0,0C463.68,928.74,464.33,928.92,464,929Z"  fill-rule="evenodd"/>
    <path d="M452,927c0,.4-.23.29,0,0C451.49,927,452.12,927,452,927Z"  fill-rule="evenodd"/>
    <path d="M778,916c-1.07.75-1,.6-3,1-2.16,2.6-5.79,3.55-8,6-4,4.48-8.25,19.83-3,27,2.37,9.32,24.7,25.79,39,19,12.68-6,18.63-15.24,16-34C803.55,922.74,808.47,915.77,778,916Z"  fill-rule="evenodd"/>
    <path d="M335,917c0,.25-.26-.33,0,0s-.5,0,0,0,.45-.28,0,0-.52.49,0,0c1.43.36.79.41,0,0-.13-.06.85.21,0,0C335,917.26,334.66,917,335,917Z"  fill-rule="evenodd"/>
    <path d="M232,902Z"  fill-rule="evenodd"/>
    <path d="M628,892c-1.07.75-1,.6-3,1-2.22,2.82-4.6,3.1-6,7-1.14,1.69-1.07,4.9-1,8,8.16,8.26,14.73,16.73,28,20,12.45,3.07,28.26-.28,31-8,.8-1.18.77-1.68,1-4C664.71,900,657.91,891.82,628,892Z"  fill-rule="evenodd"/>
    <path d="M157,886c1,.8.27.35,2,1C158,886.2,158.73,886.65,157,886Z"  fill-rule="evenodd"/>
    <path d="M125,875c1,.8.27.35,2,1C126,875.2,126.73,875.65,125,875Z"  fill-rule="evenodd"/>
    <path d="M118,872c1,.8.27.35,2,1C119,872.2,119.73,872.65,118,872Z"  fill-rule="evenodd"/>
    <path d="M90,859h0C88.25,858.37,91,859.81,90,859Z"  fill-rule="evenodd"/>
    <path d="M81,853c.18.46-.55-.38,0,0h0c.07,0-.48-.2,0,0h0c.25.66-.51-.42,0,0h0c-1.52-1,1,1.5,0,0h0c-.08.16-.92-.6,0,0h0c.06.16-.82-.52,0,0,.18,0,.06.49,0,0s.42-.77,0,0c-.18.33.21.69,0,0S81,853.6,81,853Z"  fill-rule="evenodd"/>
    <path d="M626,544h2c.14,6,1.53,9.47,2,14v42c1.38,5.61,7.7,11.41,6,19-1.14,5.09-5.28,8.71-7,13-3.73,9.3-5.51,19.74-17,21a51.12,51.12,0,0,0-6-7V622c-.29-1.26-2.22-4.07-2-6,1.83-15.94,10-34,15-48C622.3,558.77,621.69,550.89,626,544Z"  fill-rule="evenodd"/>
    <path d="M665,414c2.08.37,1.92.24,3,1,5.82,6.12,10.66,25.05,18,28,3.82,2.61,10.3-.07,14-1v6c-5.31,7.49-6.62,17.59-11,26-7.3,14-16.56,26.92-23,42h-2c-1.55-19.37-16.08-46.35-10-70,.68-2.65,3.33-5.64,4-8V428C659.36,422.67,662.45,418,665,414Z"  fill-rule="evenodd"/>
    <path d="M776,412c7.4,2.07,9.25,9.31,14,14,.11,16.48-.89,34.38-2,48-7.91,4.85-17.4,11.13-26,15l-9,2c-5.43,2.69-9.5,7.1-17,8l-1-3c3.77-3.36,3.54-9.21,6-14,8.37-16.27,16.11-35.9,17-60C763,419,771.33,415.56,776,412Z"  fill-rule="evenodd"/>
    <path d="M200,396c-4.12,2.84-10.54,2.6-15,5-10.89,5.85-24.27,16.8-31,27-16.06,24.34-26,51.52-26,92,0,11.58-.18,21.35,3,30,6.43,17.49,19.46,29.77,28,44,12.39,20.65,22.51,39.92,38,57,16.77,18.49,35.47,46.15,63,53h34c26.92-7.75,61.17-44.93,73-69,5.05-10.27,5.54-21.25,9-33,3.09-10.49,8-42.16,3-56-6.25-17.3-17.34-33.1-26-48-23.7-40.77-60.15-85.25-109-100C232,394.37,214.85,396,200,396Z"  fill-rule="evenodd"/>
    <path d="M694,304c7.36.56,8.74,3.93,13,7,6,4.35,13.23,7.56,16,15,4.4,11.83,1.07,35.73,0,48-10.87,6.54-40,16.67-55,18v-2c2.88-4.31,2.29-10.37,4-16C678.83,351.49,679.58,319.23,694,304Z"  fill-rule="evenodd"/>
    <path d="M414,71h2v1C414.25,71.37,415,71.81,414,71Z"  fill-rule="evenodd"/>
    <path d="M580,410c-31.1-.7-52.91,28.17-37,57,4.81,8.71,16.28,16.36,27,19,9,2.22,16.29-1.61,24-2-1.06,19-9.25,40.18-15,56-7.55,20.76-11.49,42.3-17,64v17c0,27.69,1.91,53.29,15,68,7.48,8.41,20.3,11.8,33,15h24c3.55,1.23,5.55,4.76,10,6v-2c-2.09-2.13-2.71-3.88-3-8,20.4-12.36,35-28,35-61V622c-1.49-6.08-3.72-12.28-4-20,7.65-5,17-10.35,22-18,2.19-3.35,5-10.54,6-14V558c2.39-7.32,10-13.89,14-20,4.66-7.07,7-22.74,17-24,3.32,4.1,24.79,32.07,27,33h10c1.18.8,1.68.77,4,1,.35,32.71-28.3,55.63-30,90-12.43.71-23.58,11.11-26,22,11.17,8.31,2.35,22.11,1,33,5.79,4.54,9.18,12.44,16,16,27.36,14.27,53.69-8.28,59-27,3.22-11.35-6.37-18.74-3-28,2-5.4,7.45-11.81,10-17,3.17-6.44,2.83-14.7,7-20,2.9-2.35,4.15-.35,6-3-6.55-6.67-1.71-18.49,1-28,6.48-22.73,8.7-46.89,14-72,7.32-4.8,13.7-11.1,25-12,6.71,6.8,25.8,19.6,27,30,1.75,2.6,1.74,29.39,0,32-2.48,6.47-38.81,24.74-47,29-6.44,3.36-16.3,4-18,12,6.28,4.27,11.37,11,17,16,7.17,6.34,16.39,10.15,23,17,4.35-1.11,9.2-5,12-4,3.08,1.88,2.26,9.12,2,14-3.67,5.45-2.1,14.85-4,22-4.44,16.71-11.27,35.62-12,54-10.08,6.14-20.45,15.6-24,28-8.62,30.15,32.13,57.15,59,43,10.67-5.62,26.2-22.29,21-43-.84-3.33-4.44-7.89-4-12,.31-2.89,3.26-7.16,4-10,2.8-10.72,1.22-21.09,4-32,1.44-5.67,4.45-13.8,6-20,5.94-23.81,2.23-51,7-76,4-1.89,7.18-3.57,13-4a107.55,107.55,0,0,0,26,26c6.65,4.46,15.87,6,17,16a217.55,217.55,0,0,0-40,31c-4.41,4.37-10.61,6.58-12,14,10.77,6.74,21.75,13.19,33,20,3.51,2.13,8.11,7.44,12,6,9.91-3.45,10.58-16.92,22-19,.53,29.1-16.08,49.11-23,72-2.5,8.26,2.45,26,0,30-2.3,5.82-8.26,6.79-12,11-2.82,3.17-6.32,10.36-8,14-10.08,21.92,15.51,45.65,29,49,27.49,6.82,56.82-17.56,50-44-2.9-11.26-10.56-21-18-28-.56-32.52,11-43,21-63,6.34-12.7,6.82-31.06,7-49h1c2.15,2.47,6.2,2.19,11,2,9,14.53,20,22.8,32,34-.19,6-3.51,10.22-2,16,.9,3.44,2.76,4.41,3,10-8.53,3.82-18.76,6.71-29,9v4c13,7.55,24,16.86,44,17,.09,10.49-.16,22.4-2,30-2.61,10.81,2,19.21,2,30,0,7.44,2.29,22.75-1,28-2.07,5.82-6.45,7-10,11-4.88,5.51-10.71,22.22-7,35,8.69,29.92,50.18,36.5,71,13,4.76-5.38,10.66-20.38,7-33-1.42-4.89-6.52-9.38-8-14-3-9.23.4-35.3,2-42,2.76-11.55.08-31.43-2-40V766c3.47-.13,8-.33,10,1,7.76,2.51,20.24,17.25,29,22,3.89,2.11,7.07,2,11,4,3.52,1.84,7.92,5.82,12,7,5.7,1.65,11,.25,15,2,.07,3,.76,2.74,0,4-3.29,3.63-16.32,2.2-23,2-4.21,2.89-11.1,2.83-15,6-.87.74-1.13,1.26-2,2l3,8c5.59,3.45,11.8,5.44,18,9,5.23,3,11.42,9.48,18,11l10-2c.67,14.58,23.5,16.29,31,25,1.11,1.38,1.49,2.87,2,5-7.51,5.27-16.54,27-22,36-3.77,6.18-14.67,6.28-20,11-12.56,11.13-20.85,30.28-10,50,8.59,15.62,35.49,25.28,56,14,15-8.27,18.88-23,18-45,20.88-15.86,30.48-42.54,44-66,9-15.54,18.62-32,28-48,16.25,13.09,44,19.41,65,27l12,2c1.34.59,4.43,3.42,6,4,7.74,2.86,14.46,1.94,22,5,4.7,1.9,8.83,7.1,14,9,11.67,4.29,23.29,3.27,32,10-5.5,5.54-8.46,12.37-13,19-4.21,6.14-10.85,11.74-15,18-3.34,5-4.11,10.46-7,16-7.77,14.91-15.83,30.94-22,48l-3,18c-2.72,10.25-7.79,42.9-4,58a328.19,328.19,0,0,1,8,50h8c-.33,3.33-.67,6.67-1,10l-3,1c-2.87,1.74-7.88,0-12,1-9.45,2.34-22.93,3.66-32,6h-28c-3.67.9-10.34,3-14,4h-30c-22.24,0-51.23,2.87-70-2-7.74-2-18.3-.52-24-2h-20c-5.8-1.46-18.21-2.5-24-4h-18c-5.32-1.34-16.69-2.62-22-4h-18c-14.83-3.74-35.21-4.13-50-8h-10c-7.77-2-18.87-4.13-26-6-9.59-2.52-16.63.4-26-2-32.5-8.32-67.16-11.33-98-22-42.52-14.71-87.18-29.86-126-49-13-6.39-26-7.66-39-14-40.08-19.59-81.26-38.71-126-53-8.43-2.69-16.17-1.57-25-4-5.35-1.47-13.23-4.38-19-6-16.76-4.71-36.51-3.73-53-8H540c-9.44-2.36-22.94-3.65-32-6H490c-18.72-4.68-43.75-3.14-63-6-14-2.08-28.88-2.65-45-4-8.1-.68-21.92.54-32-2-22.08-5.56-51.82-4.23-74-10-10.16-2.65-17.82.58-28-2-26.84-6.81-56.21-10.3-80-19l-20-4c-8.78-3.21-19.74-8.26-28-12l-9-2c-7-3.48-17-11.1-22-13-23.81-9.13-45.41-29-58-52-3.37-6.17-10.39-9.58-11-18,4,.71-3.36-2.16,0-1-.65-1.87.05,2.09,0-1h0c-1.05,1.16-.37-.69,0,0-4.35-10.24,11.34-34.42,11-46-1.6-54.77,1.66-92.6,15-133,7.67-23.22,16.25-47.78,24-71,5.08-15.23,7.17-29.7,14-43,3.14-6.11,7.65-15,13-19,8.49-6.41,17.07-11,20-23,3.23-13.22-6-32.84-9-42-2.72-8.38-2-18.92-4-28q-1-41-2-82c-6.22-27.77-2.71-60.24-9-88-2.73-12,.46-25.14-2-36q-.5-19-1-38l-3-28c-2-7.68-7.7-20.25-5-31,1.17-4.65,3.8-9.44,5-14h1V94c2.35,3.29,1.41,7.62,3,12,1.73,4.75,8.65,17.22,12,21,9.82,11.1,26.64,24.78,40,32,5.13,2.77,10,3.1,15,6,16,9.21,34.08,19.62,51,28,13.29,6.59,26.56,8.69,41,14,13.45,4.94,47.41,15,64,12,1.87-4.39.51-14,3-19,2.21-4.4,8.78-7.38,12-11,2.62-2.94,3.43-7.05,6-10s5.16-6.87,8-10c.83-.92,3.18-1.07,4-2,29.15-32.94,59.32-63.6,93-92V71c14.44-2.68,24.35-20.08,35-28,4.11-3,11.09-14,20-9,16.45,9.19,7.69,30.93,22,41-1.68,7.06-1.19,5.49-2.51,4.65C514.09,83.7,522,95.09,525,98c1.74,4.89,9.54,11,13,15,7.21,8.28,12.71,18.81,20,27,7.89,8.86,13,19.12,20,28,4.16,5.27,8.25,13.4,12,18,4.78,7.14,7.15,9.93,13,18,3.87,4.28,12.34,13.37,16,18,3.84,4.85,10.59,7.09,8,32-11.4,4.69-24.81,4.59-37,9-12.93,4.67-28.77,11.86-42,15-9.3,2.21-24.7-11.09-42-6-13.44,4-33,24.16-26,48,4.78,16.25,19.19,26,41,26,4.83,0,10.52.65,14-1,10.94-5.17,14.47-16.88,23-22,7.11-4.27,16.16-4.93,24-8,4.76-1.86,14.58-8.25,20-6,11.11,3.77,5.26,16.43,8,29,.6,2.76,2.72,5,1,8-1.89,5.83-7.13,7.46-10,12-3.47,5.49-3.49,11.58-6,18C590.7,387,581.41,395.9,580,410Z"  fill-rule="evenodd"/>
  </g>
  <g id="Top" class="shoePart" style="isolation: isolate">
    <path d="M1532,863c17.5.6,41.87,10.74,57,15,51.29,14.44,110.24,27.31,149,52,5.44,3.46,10.34,6.08,15,10,6.06,5.1,24.86,22.07,25,37,.12,12.46-1.48,15.18-5,29-1.49,5.84-3.76,9.08-7,15-1.49,2.73-7.17,10.81-11,14a179.26,179.26,0,0,1-16,12,176.63,176.63,0,0,1-16,9,207.78,207.78,0,0,1-19,9c-3.52,1.4-11,3.59-15,5s-7.36,3.42-13,5c-7.77,2.17-14.65,5.45-23,8-9.93,3-17,5.52-28.44,8.1-15,3.37-22.88,7.25-40.56,9.9-8.21,1.23-29.13,4.71-38,6-23.19,3.37-50.93,10-81,12-4.25-14.19-10-40.21-12-57-3.3-27.51,2-61.93,8-82,6.53-21.71,15.41-39.67,26-58,3.5-6,9-12.4,13-18,7.6-10.56,14-21.8,23-31C1526.45,869.48,1528.52,866.85,1532,863Z"  fill-rule="evenodd"/>
  </g>
</svg>
